<?xml version="1.0" encoding="UTF-8" standalone="no"?>
<svg
   version="1.1"
   width="512"
   height="512"
   x="0"
   y="0"
   viewBox="0 0 512 512"
   xml:space="preserve"
   class=""
   id="svg55"
   sodipodi:docname="fox.svg"
   inkscape:export-filename="Thunderfox.svg"
   inkscape:export-xdpi="96"
   inkscape:export-ydpi="96"
   xmlns:inkscape="http://www.inkscape.org/namespaces/inkscape"
   xmlns:sodipodi="http://sodipodi.sourceforge.net/DTD/sodipodi-0.dtd"
   xmlns="http://www.w3.org/2000/svg"
   xmlns:svg="http://www.w3.org/2000/svg"><defs
     id="defs59" /><sodipodi:namedview
     id="namedview57"
     pagecolor="#ffffff"
     bordercolor="#000000"
     borderopacity="0.25"
     inkscape:showpageshadow="2"
     inkscape:pageopacity="0.0"
     inkscape:pagecheckerboard="0"
     inkscape:deskcolor="#d1d1d1"
     showgrid="false" /><circle
     style="display:inline;fill:#2a7fff;stroke-width:1.42688"
     id="path414"
     cx="257"
     cy="301"
     r="200" /><g
     id="g51"
     style="display:inline"
     transform="matrix(-1,0,0,1,512.00009,0)"><path
       d="m 269.863,61.899 -15,239.101 h -82.5 l -70.724,54.3 -22.875,70.499 c 41.1,51.901 104.7,86.201 176.1,86.201 124.2,0 225,-101.8 225,-226 C 479.863,166.899 387.162,69.399 269.863,61.899 Z"
       fill="#ffb308"
       data-original="#ffb308"
       class=""
       id="path35"
       style="display:inline" /><path
       d="m 479.863,286 c 0,-119.101 -92.701,-216.601 -210,-224.101 l -15,239.101 v 211 c 124.201,0 225,-101.8 225,-226 z"
       fill="#ff8417"
       data-original="#ff8417"
       class=""
       id="path37"
       style="display:inline" /><path
       d="M 374.863,0 C 338.637,0 308.344,26.811 301.372,61 H 254.863 208.354 C 201.381,26.811 171.088,0 134.863,0 c -8.291,0 -15,6.709 -15,15 v 106 l 105,166.772 23.291,11.646 c 2.109,1.055 4.409,1.582 6.709,1.582 2.3,0 4.6,-0.527 6.709,-1.582 L 284.863,287.772 389.863,121 V 15 c 0,-8.291 -6.709,-15 -15,-15 z"
       fill="#ffb308"
       data-original="#ffb308"
       class=""
       id="path39"
       style="display:inline" /><path
       d="M 284.863,287.772 389.863,121 V 15 c 0,-8.291 -6.709,-15 -15,-15 -36.226,0 -66.519,26.811 -73.491,61 h -46.509 v 240 c 2.3,0 4.6,-0.527 6.709,-1.582 z"
       fill="#ff8417"
       data-original="#ff8417"
       class=""
       id="path41"
       style="display:inline" /><g
       id="g47"><path
         d="M 389.863,170.38 V 121 h -30 c -41.422,0 -75,33.578 -75,75 v 91.772 l 46.963,-23.481 c 35.801,-17.915 58.037,-53.892 58.037,-93.911 z"
         fill="#ffe6b3"
         data-original="#ffe6b3"
         class=""
         id="path43"
         style="display:inline" /><path
         d="m 149.863,121 h -30 v 49.38 c 0,40.02 22.236,75.996 58.037,93.911 l 46.963,23.481 V 196 c 0,-41.422 -33.578,-75 -75,-75 z"
         fill="#fff7cc"
         data-original="#fff7cc"
         class=""
         id="path45"
         style="display:inline" /></g><path
       d="m 172.363,301 -93.6,124.799 C 55.162,395.769 38.066,358.431 32.263,317.8 c -1.201,-9 6.299,-16.8 15,-16.8 z"
       fill="#ffe6b3"
       data-original="#ffe6b3"
       class=""
       id="path49"
       style="display:inline" /></g><g
     id="g1025"
     transform="matrix(0.31999733,0,0,0.31999733,338.08083,320.00024)"><path
       d="M 404.139,203.764 C 401.502,198.974 396.463,196 390.999,196 H 270.868 L 315.546,18.691 C 317.348,11.528 313.7,4.13 306.918,1.215 300.18,-1.685 292.255,0.746 288.314,6.986 L 256,59.152 108.314,292.987 c -2.915,4.629 -3.091,10.474 -0.454,15.249 2.637,4.79 7.676,7.764 13.14,7.764 h 120.132 l -44.678,177.309 c -1.802,7.163 1.846,14.561 8.628,17.476 6.773,2.895 14.648,0.478 18.604,-5.771 L 256,453.848 403.686,219.013 c 2.914,-4.629 3.09,-10.474 0.453,-15.249 z"
       fill="#fed843"
       data-original="#fed843"
       class=""
       id="path1021" /><path
       d="M 404.139,203.764 C 401.502,198.974 396.463,196 390.999,196 H 270.868 L 315.546,18.691 C 317.348,11.528 313.7,4.13 306.918,1.215 300.18,-1.685 292.255,0.746 288.314,6.986 L 256,59.152 V 453.847 L 403.686,219.012 c 2.914,-4.628 3.09,-10.473 0.453,-15.248 z"
       fill="#fabe2c"
       data-original="#fabe2c"
       id="path1023" /></g><g
     id="g1893"
     transform="matrix(0.31999733,0,0,0.31999733,8.080831,96.000241)"><path
       d="M 404.139,203.764 C 401.502,198.974 396.463,196 390.999,196 H 270.868 L 315.546,18.691 C 317.348,11.528 313.7,4.13 306.918,1.215 300.18,-1.685 292.255,0.746 288.314,6.986 L 256,59.152 108.314,292.987 c -2.915,4.629 -3.091,10.474 -0.454,15.249 2.637,4.79 7.676,7.764 13.14,7.764 h 120.132 l -44.678,177.309 c -1.802,7.163 1.846,14.561 8.628,17.476 6.773,2.895 14.648,0.478 18.604,-5.771 L 256,453.848 403.686,219.013 c 2.914,-4.629 3.09,-10.474 0.453,-15.249 z"
       fill="#fed843"
       data-original="#fed843"
       class=""
       id="path1889" /><path
       d="M 404.139,203.764 C 401.502,198.974 396.463,196 390.999,196 H 270.868 L 315.546,18.691 C 317.348,11.528 313.7,4.13 306.918,1.215 300.18,-1.685 292.255,0.746 288.314,6.986 L 256,59.152 V 453.847 L 403.686,219.012 c 2.914,-4.628 3.09,-10.473 0.453,-15.248 z"
       fill="#fabe2c"
       data-original="#fabe2c"
       id="path1891" /></g></svg>
